<?xml version="1.0" encoding="utf-8"?>
<!-- Generator: Adobe Illustrator 23.0.5, SVG Export Plug-In . SVG Version: 6.00 Build 0)  -->
<svg version="1.1" id="Layer_1" xmlns="http://www.w3.org/2000/svg" xmlns:xlink="http://www.w3.org/1999/xlink" x="0px" y="0px"
	 viewBox="0 0 595.28 841.89" style="enable-background:new 0 0 595.28 841.89;" xml:space="preserve">
<style type="text/css">
	.st0{fill:#00AEEF;stroke:#00AEEF;stroke-width:0.5;stroke-miterlimit:10;}
	.st1{fill:#00AEEF;}
	.st2{fill:#2E3192;}
	.st3{fill:#FBB040;}
	.st4{fill:#808285;}
	.st5{fill:#D1D3D4;}
	.st6{fill:#F15A29;}
	.st7{fill:#F1F2F2;}
</style>
<polygon class="st0" points="334.98,249.26 326.15,267.07 328.98,273.59 315.52,300.24 322.65,303.83 336.31,276.54 342.35,275.15 
	351.33,257.29 339.99,259.32 "/>
<circle class="st1" cx="313.05" cy="313.17" r="13.22"/>
<path class="st2" d="M318.83,281.53c-1.42,2.69-2.83,5.39-4.25,8.08c-1.88-0.06-10.21-0.15-17.1,6.09
	c-6.49,5.87-9.21,15.08-7.04,23.39c2.94,11.25,14.46,19.3,26.27,17.65c14.68-2.05,22.05-18.02,19.91-29.34
	c-0.87-4.64-3.27-8.09-5.17-10.28l4.25-7.09c2.2,2.11,6.03,6.37,8.22,12.9c0.57,1.68,3.86,12.03-1.06,23.03
	c-4.83,10.79-16.14,19.04-29.41,19.06c-12.5,0.02-24.49-7.26-29.62-19.28c-5.06-11.84-2.11-25.1,5.74-33.87
	c9.54-10.66,22.81-10.79,24.94-10.77c0.67,0.01,1.38,0.05,2.14,0.12C317.43,281.3,318.16,281.41,318.83,281.53z"/>
<path class="st3" d="M320.39,263.01c-5.81-0.73-18.25-1.43-30.76,5.34c-18.98,10.27-31.86,34.35-25.51,58.11
	c7.23,27.03,36.39,42.54,61.51,36.43c20.07-4.89,33.03-22.47,36.99-38.27c0.95-3.8,3.53-14.69-0.92-27.5
	c-3.78-10.9-10.69-17.53-14.08-20.39l-1.84,3.66l-4.42,0.43c2.46,2.27,5.55,5.65,8.08,10.35c7.67,14.24,9.37,39.18-8.22,54.43
	c-16.46,14.27-41.77,13.08-57.12-1.49c-13.33-12.65-16.15-32.57-9.57-47.76c6.07-14.01,18.46-20.12,21.76-21.61
	c11.22-5.09,21.44-3.99,25.51-3.33l-1.2-4.46c0.26-1.25,0.52-2.5,0.78-3.76L320.39,263.01z"/>
<path class="st4" d="M332.86,221.08L349.87,240l26.65,4.68l-4.68,10.06c-0.99,0.58-2.7,1.41-4.96,1.7
	c-1.76,0.23-3.24,0.06-4.25-0.14c-4.36-0.6-11.82-2.21-19.7-7.09c-7.03-4.34-11.51-9.5-14.03-12.9c-0.39-0.83-0.92-2.2-0.99-3.97
	c-0.05-1.15,0.11-2.12,0.28-2.83C329.74,226.7,331.3,223.89,332.86,221.08z"/>
<path d="M324.64,206.83l3.25,3.17l-7.69,14.93c-0.55,0.73-0.49,1.71,0.05,2.27c0.65,0.67,1.93,0.65,2.65-0.24
	c2.61-4.54,5.23-9.07,7.84-13.61l21.97,24.09l40.39,6.24l-27.21-31.04L324.64,206.83z"/>
<path class="st5" d="M340.8,402.14l-12.12,6.17l-2.98,4.75h-2.55l-89.79-70.3l-48.19-25.51l141.09,111.36l19.25-24.63
	c-0.33-0.34-0.79-0.73-1.39-1.06C342.77,402.17,341.47,402.12,340.8,402.14z"/>
<path class="st6" d="M336.97,380.88c0.95-0.72,2.27-0.61,3.05,0.21c0.71,0.75,0.81,1.93,0.21,2.83c-3.59,3.21-7.18,6.43-10.77,9.64
	c-0.05,0.04-0.25,0.22-0.24,0.45c0.02,0.28,0.38,0.57,0.87,0.54c3.61-1.79,7.66-0.95,9.64,1.63c1.85,2.42,1.18,5.46,1.06,5.95
	c-4.04,2.06-8.08,4.11-12.12,6.17c-0.35,0.11-5.03,1.56-8.57-1.42c-1.84-1.54-2.47-3.52-2.69-4.39c-0.15-0.54-0.41-1.75,0-3.19
	c0.29-1.01,0.8-1.72,1.13-2.13C324.69,391.75,330.83,386.31,336.97,380.88z"/>
<ellipse transform="matrix(0.9666 -0.2563 0.2563 0.9666 -91.798 97.6318)" class="st7" cx="328.71" cy="401.04" rx="5.78" ry="2.37"/>
<path class="st6" d="M307.91,389.78c1.38,0.56,5.18,1.86,9.46,0.46c1.5-0.49,2.7-1.2,3.58-1.84c0.31-0.19,1.46-0.95,1.9-2.46
	c0.31-1.06,0.12-1.96,0.01-2.36c-0.22-0.57-0.77-1.76-2.02-2.76c-1.49-1.19-3.07-1.38-3.66-1.42c-1.6,0.05-4.13,0.33-6.94,1.56
	c-3.52,1.54-5.73,3.79-6.84,5.1c-0.42,0.58-0.98,1.49-1.35,2.73c-0.4,1.34-0.41,2.49-0.35,3.22c0.07,0.48,0.35,2.04,1.7,3.37
	c1.35,1.32,2.92,1.57,3.4,1.63c1.07,0.51,3.08,1.3,5.7,1.28c2.04-0.02,3.66-0.52,4.67-0.92c0.05-0.17,0.36-1.31-0.35-2.41
	c-0.76-1.19-2.08-1.33-2.23-1.35c-0.62,0.22-1.72,0.53-3.12,0.43c-1.54-0.12-2.68-0.69-3.26-1.03c-0.83-0.13-1.44-0.84-1.45-1.63
	C306.77,390.67,307.23,390.03,307.91,389.78z"/>
<ellipse transform="matrix(0.9781 -0.2082 0.2082 0.9781 -73.3513 74.0125)" class="st7" cx="314.89" cy="385.44" rx="3.83" ry="1.58"/>
<path class="st6" d="M282.26,353.19v2.26l-7.37,17.72c-0.04,0.15-0.34,1.46,0.53,2.52c0.73,0.89,1.99,1.25,3.16,0.88
	c3.41-1.62,6.83-3.24,10.24-4.85c0.09-0.08,1.16-1.05,1.81-0.74c0.61,0.29,0.83,1.68,0.11,3.36c-0.52,2.69-1.04,5.39-1.56,8.08
	c-0.24,0.8-0.05,1.66,0.51,2.21c0.72,0.71,1.96,0.8,2.89,0.13c3.75-1.36,8.51-3.55,13.45-7.12c2.99-2.16,5.44-4.39,7.39-6.43
	c1.02-0.93,0.98-2.51,0.07-3.31c-0.81-0.71-2.16-0.68-3.02,0.19c-4.28,3.43-8.55,6.87-12.83,10.3c-0.76,0.33-1.6,0.22-2.1-0.28
	c-0.38-0.37-0.45-0.85-0.47-1.04c0.72-3.78,1.45-7.56,2.17-11.34c0.22-0.77-0.06-1.58-0.66-1.98c-0.73-0.49-1.82-0.32-2.42,0.48
	c-3.22,1.59-6.45,3.17-9.67,4.76c-1.09,0.77-2.36,0.47-2.74-0.22c-0.26-0.47-0.12-1.15,0.28-1.7c1.8-3.46,3.61-6.91,5.41-10.37
	L282.26,353.19z"/>
<path class="st6" d="M264.97,341.67l3.12,3.87c-1.14,0.78-2.33,1.68-3.54,2.69c-2.1,1.75-3.85,3.51-5.29,5.15
	c-0.05,0.08-0.62,0.98-0.24,1.89c0.37,0.87,1.47,1.39,2.6,1.09c3.39-1.81,6.77-3.62,10.16-5.43c1.23-0.87,2.86-0.5,3.5,0.57
	c0.51,0.85,0.35,2.06-0.46,2.88c-1.19,0.79-3.08,2.27-4.69,4.68c-1.45,2.17-2.1,4.23-2.41,5.57c-0.43,0.77-0.85,1.54-1.28,2.31
	c-0.45-0.07-1.37-0.29-2.27-0.99c-0.8-0.62-1.22-1.34-1.42-1.74c0.13-1.26,0.25-2.52,0.38-3.78c-0.82,0.11-1.79,0.17-2.88,0.14
	c-1.01-0.03-1.92-0.14-2.69-0.28c-0.71-0.33-1.91-1.01-2.93-2.31c-0.53-0.68-0.87-1.35-1.09-1.89c0.11-1.07,0.22-2.14,0.33-3.21
	c1.81-2.25,3.95-4.66,6.47-7.09C261.92,344.26,263.47,342.89,264.97,341.67z"/>
<path class="st6" d="M264.31,328.02c-0.29,0.14-0.57,0.29-0.86,0.45c-3.22,1.77-5.73,4.05-7.69,6.4c-0.1,0.05-0.76,0.36-1.46,0.05
	c-0.43-0.19-0.67-0.52-0.76-0.66c-0.37-0.52-1.41-1.86-3.31-2.5c-1.23-0.42-2.31-0.38-2.93-0.31c-1.45-0.01-4.1,0.18-6.99,1.58
	c-3.72,1.81-5.72,4.6-6.52,5.86c-0.21,0.35-0.58,1.04-0.66,1.98c-0.07,0.84,0.11,1.52,0.24,1.89c0.63,0.57,1.39,1.2,2.31,1.81
	c1.06,0.7,2.07,1.22,2.93,1.59c1.15-0.27,2.11-0.47,2.83-0.61c0.58-0.11,1.02-0.2,1.61-0.28c0.97-0.14,1.78-0.2,2.36-0.24
	c-0.47,1.83-0.94,3.65-1.42,5.48l4.11,2.68c2.33-0.43,3.8-1.4,3.76-2.26c-0.01-0.17-0.08-0.61-0.93-1.13
	c-0.24-0.43-0.47-0.85-0.71-1.28c-0.13-0.28-0.4-0.97-0.28-1.84c0.14-1.06,0.74-1.72,0.94-1.94c5.03-4.24,10.06-8.47,15.09-12.71
	L264.31,328.02z"/>
<ellipse transform="matrix(0.9536 -0.3011 0.3011 0.9536 -90.5707 89.24)" class="st7" cx="244.23" cy="338.45" rx="5.89" ry="2.03"/>
<path class="st6" d="M229.96,309.2c2.75,1.47,5.6,3.08,8.5,4.83c2.39,1.44,4.67,2.88,6.84,4.31c0.04,0.09,0.53,1.27-0.18,2.35
	c-0.52,0.81-1.5,1.23-2.48,1.09c-3.3-2-6.59-3.99-9.89-5.99c-0.19-0.03-1.78-0.24-3.01,0.96c-1.33,1.28-1.05,3.04-1.03,3.19
	c0.66,0.72,1.42,1.48,2.3,2.23c2.12,1.81,4.24,3,5.99,3.79c0.04,0.1,0.44,1.03-0.06,1.87c-0.48,0.79-1.57,1.16-2.6,0.79
	c-2.94-1.39-5.88-2.79-8.82-4.18c-0.54-0.1-1.77-0.24-3.12,0.35c-2.27,1-2.95,3.27-3.05,3.61c3.7,2.21,7.39,4.42,11.09,6.63
	c0.47,0.62,0.57,1.44,0.26,2.1c-0.39,0.83-1.37,1.3-2.35,1.09c-5.13-3.12-10.25-6.24-15.38-9.35c-0.08-0.32-0.17-0.79-0.13-1.37
	c0.03-0.53,0.16-0.96,0.27-1.25c3.11-2.6,6.4-5.61,9.74-9.07C225.51,314.44,227.87,311.77,229.96,309.2z"/>
</svg>
